<?xml version="1.0" encoding="UTF-8" standalone="no"?>
<svg
   xmlns:dc="http://purl.org/dc/elements/1.1/"
   xmlns:cc="http://creativecommons.org/ns#"
   xmlns:rdf="http://www.w3.org/1999/02/22-rdf-syntax-ns#"
   xmlns:svg="http://www.w3.org/2000/svg"
   xmlns="http://www.w3.org/2000/svg"
   viewBox="0 0 1148.76 246.62666"
   height="246.62666"
   width="1148.76"
   xml:space="preserve"
   id="svg2"
   version="1.1"><metadata
     id="metadata8"><rdf:RDF><cc:Work
         rdf:about=""><dc:format>image/svg+xml</dc:format><dc:type
           rdf:resource="http://purl.org/dc/dcmitype/StillImage" /></cc:Work></rdf:RDF></metadata><defs
     id="defs6" /><g
     transform="matrix(1.3333333,0,0,-1.3333333,0,246.62667)"
     id="g10"><g
       transform="scale(0.1)"
       id="g12"><path
         id="path14"
         style="fill:#ec008c;fill-opacity:1;fill-rule:nonzero;stroke:none"
         d="m 2117.52,1683.44 c -119.7,106.4 -288.05,165 -474.04,165 -182.14,0 -357.68,-67.44 -481.62,-185.01 l -10.25,-9.72 -10.25,9.72 c -123.97,117.57 -299.508,185.01 -481.63,185.01 -185.992,0 -354.339,-58.6 -474.05,-165 C 71.0508,1581.54 0,1475.73 0,1263.43 L 0.046875,29.5313 H 335.629 l 0.059,1233.8987 c 0,162.27 142.339,289.38 324.042,289.38 181.7,0 324.02,-127.11 324.02,-289.38 L 983.789,29.5313 H 1319.4 l 0.06,1233.8987 c 0,162.27 142.33,289.38 324.02,289.38 181.7,0 324.03,-127.11 324.03,-289.38 l 0.05,-1233.8987 h 335.56 l 0.09,1233.8987 c 0,212.3 -71.05,318.11 -185.69,420.01" /><path
         id="path16"
         style="fill:#ec008c;fill-opacity:1;fill-rule:nonzero;stroke:none"
         d="m 3504.05,575.949 c 0,-82.84 -29.76,-158.867 -83.8,-214.051 -59.53,-60.777 -144.31,-92.918 -245.19,-92.918 -70.26,0 -199.46,13.661 -275.33,105.219 -59.07,71.27 -68.16,174.711 -22.62,257.422 80.56,146.289 264.55,201.418 433.92,236.051 l 18.7,3.808 c 37.53,7.598 125.4,25.43 156.45,31.993 l 17.87,3.789 z m 146.4,1109.321 c -113.8,106.74 -274.86,163.17 -465.77,163.17 -317.88,0 -499.08,-181.34 -586.24,-268.7 l 138.27,-242.95 0.71,0.76 c 82.77,89.66 309.01,287.07 621.38,183.98 l 1.41,-0.55 c 64.39,-28.78 141.13,-87.22 141.32,-202.13 l 0.04,-0.75 c 1.65,-14.43 2.48,-29.78 2.48,-45.64 v -95.27 l -360.97,-71.74 c -173.06,-34.04 -313.11,-92.59 -416.3,-174.012 -127.81,-100.887 -192.62,-231.629 -192.62,-388.637 0,-166.18 69.13,-306.531 199.92,-405.903 C 2850.25,48.6211 3008,0 3178.26,0 c 169.84,0 328.85,56.1016 447.75,157.969 124.56,106.691 193.16,255.133 193.16,417.98 v 696.511 c 0,178.39 -50.46,301.84 -168.72,412.81" /><path
         id="path18"
         style="fill:#ec008c;fill-opacity:1;fill-rule:nonzero;stroke:none"
         d="m 5084.46,1702.63 c -26.81,23.65 -55.22,45.06 -84.43,63.64 -68.16,43.35 -137.48,69.86 -206.04,78.76 -133.05,17.26 -290.73,-14.26 -411.52,-82.32 -38.75,-21.84 -74.36,-47.89 -105.85,-77.44 C 4167.19,1582.61 4107.9,1486.42 4107.9,1272.46 V 29.5313 h 315.11 l 0.04,1175.2487 c 0,28.15 0,56.31 0.02,84.45 0.03,30.09 0.68,57.24 8.5,84.92 12.69,44.9 40.89,86.86 79.42,118.16 17.43,14.17 36.23,25.8 55.87,34.58 122.58,50.87 256.69,21.07 361.68,-79.34 140.52,130.84 193.24,179.91 213.49,198.56 -16.74,18.51 -50.71,50.46 -57.57,56.52" /><path
         id="path20"
         style="fill:#ec008c;fill-opacity:1;fill-rule:nonzero;stroke:none"
         d="m 8300.54,575.949 c 0,-82.84 -29.76,-158.867 -83.8,-214.051 -59.53,-60.777 -144.32,-92.918 -245.2,-92.918 -70.25,0 -199.46,13.661 -275.33,105.219 -59.07,71.27 -68.15,174.711 -22.62,257.422 80.56,146.289 264.55,201.418 433.92,236.051 l 18.09,3.672 c 37.64,7.648 125.86,25.527 157.08,32.129 l 17.86,3.789 z M 7981.17,1848.44 c -317.88,0 -499.07,-181.34 -586.25,-268.7 l 138.27,-242.95 0.72,0.76 c 82.78,89.66 309.02,287.07 621.38,183.98 l 1.41,-0.55 c 64.39,-28.79 141.13,-87.23 141.33,-202.13 l 0.04,-0.75 c 1.64,-14.43 2.47,-29.78 2.47,-45.64 v -95.27 l -360.98,-71.74 c -173.06,-34.04 -313.1,-92.59 -416.3,-174.012 -127.8,-100.887 -192.62,-231.637 -192.62,-388.637 0,-166.18 69.14,-306.531 199.93,-405.903 C 7646.74,48.6211 7804.48,0 7974.76,0 c 169.82,0 328.83,56.1016 447.74,157.969 124.56,106.691 193.15,255.14 193.15,417.98 v 696.511 c 0,166.49 -58.34,309.24 -168.72,412.81 -113.8,106.74 -274.86,163.17 -465.76,163.17" /><path
         id="path22"
         style="fill:#ec008c;fill-opacity:1;fill-rule:nonzero;stroke:none"
         d="m 6805.51,1000.59 c -81.14,43.27 -165.7,75.12 -259.85,109.36 l -13.81,5 c -60.74,22.02 -123.46,44.77 -181.53,74.11 -73.25,36.99 -114.07,77.46 -128.48,127.35 l -0.46,1.54 c -12.63,46.04 -2.06,95.42 28.2,132.33 28.44,34.67 72.52,61.43 131.02,79.53 25.9,8.01 53.14,13.75 80.97,17.06 100.64,12.05 204.26,-5.98 299.65,-52.11 63.99,-30.93 124.13,-73.42 178.77,-126.25 2.56,-2.49 24.94,-24.9 30.17,-30.95 l 0.7,-0.81 0.46,0.8 c 0.97,1.75 129.76,228.04 137.81,242.19 -87.21,87.39 -268.4,268.7 -586.23,268.7 -196.61,0 -374.66,-62.73 -488.48,-172.09 -118.48,-113.87 -164.76,-282.73 -120.77,-440.7 33.55,-120.45 129.45,-228.08 270.03,-303.08 87.92,-46.91 184.46,-82.875 268.06,-112.91 l 10.58,-3.808 c 73.21,-26.27 148.88,-53.411 215.39,-94.723 78.38,-48.688 118.13,-111.719 118.13,-187.34 0,-104.141 -84.98,-177.269 -176.85,-217.301 -102.33,-44.59 -221.23,-30.129 -326.42,1.231 -143.06,41.961 -287.64,188.203 -289.07,189.679 L 5861.38,268.559 c 87.27,-87.457 268.44,-268.5472812 586.08,-268.5472812 25.72,0 52.01,1.1679712 78.12,3.4765612 l 16.08,1.41016 V 4.48047 l 0.6,0.05859 c 140.5,14.22264 267.43,61.51954 367.05,136.80094 130.03,98.25 201.63,237.621 201.63,392.449 0,111.211 -31.14,212.09 -90.06,291.723 -49.51,66.926 -119.96,124.203 -215.37,175.078" /><path
         id="path24"
         style="fill:#ec008c;fill-opacity:1;fill-rule:nonzero;stroke:none"
         d="M 5630.39,1818.29 H 5315.26 V 29.5391 h 315.13 V 1818.29" /></g></g></svg>